<?xml version="1.0" encoding="utf-8"?>
<!-- Generator: Adobe Illustrator 19.0.0, SVG Export Plug-In . SVG Version: 6.00 Build 0)  -->
<svg version="1.1" xmlns="http://www.w3.org/2000/svg" xmlns:xlink="http://www.w3.org/1999/xlink" x="0px" y="0px"
	 viewBox="0 0 2000 2000" enable-background="new 0 0 2000 2000" xml:space="preserve">
<g id="Layer_2" display="none">
	<rect id="XMLID_2_" display="inline" fill="#FFFFFF" width="2000" height="2000"/>
</g>
<g id="Layer_1">
	<g id="XMLID_1_">
		<path id="XMLID_3_" fill="#0481B1" d="M736.7,1595.9H582.6c-129.1,0-234.6-105.6-234.6-234.6V639.2
			c0-129.1,105.6-234.6,234.6-234.6h154.1c129.1,0,234.6,105.6,234.6,234.6v722.1C971.4,1490.4,865.8,1595.9,736.7,1595.9z"/>
		<g id="XMLID_4_">
			<path id="XMLID_5_" fill="#0481B1" d="M1274,734.4c181.8,37.7,229.9-158.5,229.9-158.5l54.3-124.1
				c-39.3-29.7-88.1-47.3-140.9-47.3h-154.1c-129.1,0-234.6,105.6-234.6,234.6v5.8C1104.2,672.5,1272,733.4,1274,734.4z"/>
			<path id="XMLID_6_" fill="#0481B1" d="M1582.4,472.9c-19.2,50-43.4,113.7-43.4,116.1c-46.8,190.9,67.5,271.4,67.5,271.4
				l45.5,33.3V639.2C1651.9,574.3,1625.3,515.4,1582.4,472.9z"/>
			<path id="XMLID_7_" fill="#0481B1" d="M1383.1,1012.4L1133.7,1502c0,0,200-527.3,201.3-528.6c45.5-135.1-132.5-209.1-132.5-209.1
				l-174-82v679c0,129.1,105.6,234.6,234.6,234.6h154.1c129.1,0,234.6-105.6,234.6-234.6V930.9
				C1469.3,879.6,1383.1,1012.4,1383.1,1012.4z"/>
		</g>
	</g>
</g>
</svg>
